<svg width="49" height="50" viewBox="0 0 49 50" fill="none" xmlns="http://www.w3.org/2000/svg">
<path d="M12.2672 16.8449C12.2672 13.6005 13.556 10.4891 15.8501 8.19497C18.1442 5.90087 21.2556 4.61206 24.5 4.61206C27.7443 4.61206 30.8558 5.90087 33.1499 8.19497C35.444 10.4891 36.7328 13.6005 36.7328 16.8449C36.7328 31.1165 42.8492 35.1941 42.8492 35.1941H6.15076C6.15076 35.1941 12.2672 31.1165 12.2672 16.8449Z" stroke="#D8B4FE" stroke-width="2" stroke-linecap="round" stroke-linejoin="round"/>
<path d="M21.0341 43.3494C21.3753 43.9701 21.877 44.4877 22.4867 44.8483C23.0964 45.2088 23.7917 45.399 24.5 45.399C25.2083 45.399 25.9037 45.2088 26.5134 44.8483C27.123 44.4877 27.6247 43.9701 27.966 43.3494" stroke="#D8B4FE" stroke-width="2" stroke-linecap="round" stroke-linejoin="round"/>
</svg>
