<svg width="49" height="50" viewBox="0 0 49 50" fill="none" xmlns="http://www.w3.org/2000/svg">
<path d="M12.2673 16.8449C12.2673 13.6005 13.5561 10.4891 15.8502 8.19497C18.1443 5.90087 21.2558 4.61206 24.5001 4.61206C27.7445 4.61206 30.8559 5.90087 33.15 8.19497C35.4441 10.4891 36.7329 13.6005 36.7329 16.8449C36.7329 31.1165 42.8493 35.1941 42.8493 35.1941H6.15088C6.15088 35.1941 12.2673 31.1165 12.2673 16.8449Z" stroke="#9333EA" stroke-width="2" stroke-linecap="round" stroke-linejoin="round"/>
<path d="M21.0342 43.3494C21.3754 43.9701 21.8771 44.4877 22.4868 44.8483C23.0965 45.2088 23.7918 45.399 24.5001 45.399C25.2085 45.399 25.9038 45.2088 26.5135 44.8483C27.1232 44.4877 27.6248 43.9701 27.9661 43.3494" stroke="#9333EA" stroke-width="2" stroke-linecap="round" stroke-linejoin="round"/>
</svg>
